<?xml version="1.0" encoding="utf-8"?>
<svg viewBox="0 0 512 512" xmlns="http://www.w3.org/2000/svg">
  <path fill="#000000" opacity="1.000000" stroke="none" d=" M190.000000,1.000000 C256.687561,1.000000 323.375122,1.000000 390.531342,1.468657 C391.000000,12.540006 391.000000,23.142696 391.000000,34.134796 C409.933289,34.134796 428.340149,34.134796 447.138824,34.134796 C447.138824,45.270386 447.138824,56.013889 447.138824,67.144112 C458.275757,67.144112 469.018341,67.144112 479.727509,67.144112 C479.727509,89.947693 479.727509,112.350784 479.727509,135.141785 C413.057098,135.141785 346.658234,135.141785 279.862061,135.141785 C279.862061,146.269440 279.862061,157.012054 279.862061,168.143173 C268.391846,168.143173 257.315979,168.143173 245.851654,168.143173 C245.851654,179.613419 245.851654,190.689774 245.851654,202.153564 C234.714569,202.153564 223.971359,202.153564 213.274918,202.153564 C213.274918,238.955048 213.274918,275.356445 213.274918,312.155701 C224.287659,312.155701 235.030746,312.155701 246.160934,312.155701 C246.160934,323.626343 246.160934,334.702454 246.160934,346.166077 C257.631622,346.166077 268.707947,346.166077 280.171326,346.166077 C280.171326,357.303650 280.171326,368.047180 280.171326,379.167542 C346.968750,379.167542 413.367615,379.167542 479.720337,379.167542 C479.720337,401.962128 479.720337,424.365295 479.720337,447.165161 C468.702637,447.165161 457.959229,447.165161 446.829529,447.165161 C446.829529,458.302765 446.829529,469.046295 446.829529,480.174500 C428.026428,480.174500 409.619568,480.174500 391.000000,480.174500 C391.000000,491.380920 391.000000,502.190460 391.000000,513.000000 C324.312439,513.000000 257.624878,513.000000 190.468658,512.531372 C190.000000,501.460297 190.000000,490.857941 190.000000,479.866394 C171.067810,479.866394 152.661118,479.866394 133.862762,479.866394 C133.862762,468.731171 133.862762,457.987762 133.862762,446.857788 C122.726074,446.857788 111.982727,446.857788 100.852844,446.857788 C100.852844,435.387726 100.852844,424.311462 100.852844,412.847961 C89.382736,412.847961 78.306419,412.847961 66.844345,412.847961 C66.844345,394.378815 66.844345,376.305328 66.844345,357.840637 C55.708553,357.840637 44.965431,357.840637 34.271820,357.840637 C34.271820,290.377014 34.271820,223.313034 34.271820,155.850616 C45.281219,155.850616 56.024410,155.850616 67.153053,155.850616 C67.153053,137.381439 67.153053,119.307968 67.153053,100.843323 C78.622055,100.843323 89.698441,100.843323 101.161545,100.843323 C101.161545,89.372948 101.161545,78.296532 101.161545,66.833534 C112.298721,66.833534 123.042046,66.833534 134.171448,66.833534 C134.171448,55.696133 134.171448,44.952827 134.171448,33.824932 C152.974228,33.824932 171.380905,33.824932 190.000000,33.824932 C190.000000,22.618885 190.000000,11.809443 190.000000,1.000000 z"/>
</svg>