<?xml version="1.0" encoding="utf-8"?>
<svg viewBox="0 0 512 512" xmlns="http://www.w3.org/2000/svg">
  <path fill="#000000" opacity="1.000000" stroke="none" d="M 182.167 51.531 C 239.508 51.531 296.847 51.531 354.59 51.934 C 354.993 61.453 354.993 70.57 354.993 80.021 C 371.272 80.021 387.099 80.021 403.263 80.021 C 403.263 89.595 403.263 98.833 403.263 108.403 C 412.839 108.403 422.075 108.403 431.284 108.403 C 431.284 128.011 431.284 147.273 431.284 166.87 C 373.958 166.87 316.867 166.87 259.433 166.87 C 259.433 176.437 259.433 185.674 259.433 195.245 C 249.571 195.245 240.048 195.245 230.191 195.245 C 230.191 205.107 230.191 214.632 230.191 224.489 C 220.615 224.489 211.377 224.489 202.18 224.489 C 202.18 256.131 202.18 287.43 202.18 319.072 C 211.649 319.072 220.886 319.072 230.456 319.072 C 230.456 328.934 230.456 338.458 230.456 348.315 C 240.319 348.315 249.843 348.315 259.699 348.315 C 259.699 357.891 259.699 367.129 259.699 376.691 C 317.134 376.691 374.226 376.691 431.277 376.691 C 431.277 396.29 431.277 415.552 431.277 435.157 C 421.805 435.157 412.567 435.157 402.998 435.157 C 402.998 444.733 402.998 453.97 402.998 463.54 C 386.829 463.54 371.003 463.54 354.993 463.54 C 354.993 473.175 354.993 482.469 354.993 491.763 C 297.653 491.763 240.313 491.763 182.571 491.36 C 182.167 481.841 182.167 472.725 182.167 463.274 C 165.889 463.274 150.062 463.274 133.899 463.274 C 133.899 453.7 133.899 444.462 133.899 434.893 C 124.323 434.893 115.086 434.893 105.516 434.893 C 105.516 425.03 105.516 415.506 105.516 405.65 C 95.654 405.65 86.13 405.65 76.274 405.65 C 76.274 389.77 76.274 374.229 76.274 358.353 C 66.7 358.353 57.462 358.353 48.268 358.353 C 48.268 300.346 48.268 242.682 48.268 184.676 C 57.734 184.676 66.971 184.676 76.54 184.676 C 76.54 168.795 76.54 153.255 76.54 137.379 C 86.401 137.379 95.925 137.379 105.782 137.379 C 105.782 127.516 105.782 117.993 105.782 108.137 C 115.358 108.137 124.595 108.137 134.164 108.137 C 134.164 98.56 134.164 89.323 134.164 79.754 C 150.331 79.754 166.158 79.754 182.167 79.754 C 182.167 70.119 182.167 60.824 182.167 51.531 Z" style="opacity: 1; transform-origin: 239.776px 271.647px;" transform="matrix(0.76567286253, -0.643230021, 0.643230021, 0.76567286253, 0.000009163396, -0.000033232845)"/>
</svg>