<svg version="1.2" xmlns="http://www.w3.org/2000/svg" viewBox="0 0 512 512" width="512" height="512">
	<title>sun-tp-svg</title>
	<style>
		.s0 { fill: #33ff33 } 
	</style>
	<path id="Layer" class="s0" d="m1 335c0-11 0-22 0.5-33.5 25.7-0.5 50.9-0.5 76.2-0.5 0-29.6 0-58.7 0-88-25.8 0-51.3 0-76.7 0 0-11 0-22 0.5-33.5 37-0.5 73.6-0.5 110.2-0.5 0-22.3 0-44 0-66.1-11.3 0-22.4 0-33.8 0 0-11.5 0-22.6 0-34-11.2 0-21.9 0-32.6 0 0-11.5 0-22.6 0-33.6 11.3 0 22.4 0 33.9 0 0 11 0 21.7 0 32.9 11.4 0 22.5 0 34 0 0 11.4 0 22.5 0 33.5 22.1 0 43.9 0 65.8 0 0-37.1 0-73.9 0-110.7 11 0 22 0 33.5 0.5 0.5 25.7 0.5 50.9 0.5 76.2 29.6 0 58.7 0 88 0 0-25.8 0-51.3 0-76.7 11 0 22 0 33.5 0.5 0.5 37 0.5 73.6 0.5 110.2 22.3 0 44 0 66.1 0 0-11.3 0-22.4 0-33.8 11.5 0 22.6 0 34 0 0-11.2 0-21.9 0-32.6 11.5 0 22.6 0 33.6 0 0 11.3 0 22.4 0 33.9-11 0-21.7 0-32.9 0 0 11.4 0 22.5 0 34-11.4 0-22.5 0-33.5 0 0 22.1 0 43.9 0 65.8 37.1 0 73.9 0 110.7 0 0 11 0 22-0.5 33.5-25.7 0.5-50.9 0.5-76.2 0.5 0 29.6 0 58.7 0 88 25.8 0 51.3 0 76.7 0 0 11 0 22-0.5 33.5-37 0.5-73.6 0.5-110.2 0.5 0 22.3 0 44 0 66.1 11.3 0 22.4 0 33.8 0 0 11.5 0 22.6 0 34 11.2 0 21.9 0 32.6 0 0 11.5 0 22.6 0 33.6-11.3 0-22.4 0-33.9 0 0-11 0-21.7 0-32.9-11.4 0-22.5 0-34 0 0-11.4 0-22.5 0-33.5-22.1 0-43.9 0-65.8 0 0 37.1 0 73.9 0 110.7-11 0-22 0-33.5-0.5-0.5-25.7-0.5-50.9-0.5-76.2-29.6 0-58.7 0-88 0 0 25.8 0 51.3 0 76.7-11 0-22 0-33.5-0.5-0.5-37-0.5-73.6-0.5-110.2-22.3 0-44 0-66.1 0 0 11.3 0 22.4 0 33.8-11.5 0-22.6 0-34 0 0 11.2 0 21.9 0 32.6-11.5 0-22.6 0-33.6 0 0-11.3 0-22.4 0-33.9 11 0 21.7 0 32.9 0 0-11.4 0-22.5 0-34 11.4 0 22.5 0 33.5 0 0-22.1 0-43.9 0-65.8-37.1 0-73.9 0-110.7 0z"/>
</svg>