<svg version="1.1" id="Layer_1" xmlns="http://www.w3.org/2000/svg" xmlns:xlink="http://www.w3.org/1999/xlink" x="0px" y="0px"
	 width="100%" viewBox="0 0 512 512" enable-background="new 0 0 512 512" xml:space="preserve">
<path fill="#000000" opacity="1.000000" stroke="none" 
	d="
M1.000000,335.000000 
	C1.000000,323.979095 1.000000,312.958221 1.468657,301.468658 
	C27.171291,301.000000 52.405266,301.000000 77.663452,301.000000 
	C77.663452,271.418274 77.663452,242.268158 77.663452,213.000000 
	C51.884724,213.000000 26.442362,213.000000 1.000000,213.000000 
	C1.000000,201.979111 1.000000,190.958206 1.468657,179.468658 
	C38.535984,179.000000 75.134659,179.000000 111.736221,179.000000 
	C111.736221,156.737671 111.736221,135.000763 111.736221,112.866219 
	C100.401581,112.866219 89.324699,112.866219 77.860260,112.866219 
	C77.860260,101.395515 77.860260,90.319176 77.860260,78.854263 
	C66.722679,78.854263 55.979042,78.854263 45.275730,78.854263 
	C45.275730,67.380615 45.275730,56.308819 45.275730,45.278709 
	C56.625458,45.278709 67.697327,45.278709 79.163681,45.278709 
	C79.163681,56.295696 79.163681,67.039345 79.163681,78.169678 
	C90.635223,78.169678 101.712051,78.169678 113.175629,78.169678 
	C113.175629,89.641312 113.175629,100.718193 113.175629,111.710709 
	C135.313797,111.710709 157.051025,111.710709 179.000000,111.710709 
	C179.000000,74.614555 179.000000,37.807278 179.000000,1.000000 
	C190.020889,1.000000 201.041794,1.000000 212.531342,1.468657 
	C213.000000,27.171286 213.000000,52.405254 213.000000,77.663460 
	C242.581711,77.663460 271.731842,77.663460 301.000000,77.663460 
	C301.000000,51.884724 301.000000,26.442362 301.000000,1.000000 
	C312.020905,1.000000 323.041779,1.000000 334.531342,1.468657 
	C335.000000,38.535908 335.000000,75.134499 335.000000,111.736320 
	C357.262054,111.736320 378.999023,111.736320 401.133606,111.736320 
	C401.133606,100.401779 401.133606,89.324898 401.133606,77.860443 
	C412.604309,77.860443 423.681091,77.860443 435.145569,77.860443 
	C435.145569,66.722839 435.145569,55.979183 435.145569,45.275669 
	C446.619263,45.275669 457.691040,45.275669 468.721344,45.275669 
	C468.721344,56.625427 468.721344,67.697205 468.721344,79.163582 
	C457.704407,79.163582 446.960724,79.163582 435.830383,79.163582 
	C435.830383,90.635139 435.830383,101.711967 435.830383,113.175568 
	C424.358765,113.175568 413.281860,113.175568 402.289276,113.175568 
	C402.289276,135.313751 402.289276,157.050995 402.289276,179.000000 
	C439.385437,179.000000 476.192719,179.000000 513.000000,179.000000 
	C513.000000,190.020889 513.000000,201.041794 512.531372,212.531342 
	C486.828705,213.000000 461.594727,213.000000 436.336548,213.000000 
	C436.336548,242.581741 436.336548,271.731842 436.336548,301.000000 
	C462.115265,301.000000 487.557648,301.000000 513.000000,301.000000 
	C513.000000,312.020905 513.000000,323.041779 512.531372,334.531342 
	C475.464081,335.000000 438.865509,335.000000 402.263672,335.000000 
	C402.263672,357.262054 402.263672,378.998993 402.263672,401.133575 
	C413.598206,401.133575 424.675079,401.133575 436.139526,401.133575 
	C436.139526,412.604309 436.139526,423.681091 436.139526,435.145569 
	C447.277130,435.145569 458.020782,435.145569 468.724335,435.145569 
	C468.724335,446.619232 468.724335,457.691040 468.724335,468.721375 
	C457.374603,468.721375 446.302826,468.721375 434.836426,468.721375 
	C434.836426,457.704437 434.836426,446.960754 434.836426,435.830414 
	C423.364868,435.830414 412.288055,435.830414 400.824463,435.830414 
	C400.824463,424.358765 400.824463,413.281891 400.824463,402.289276 
	C378.686249,402.289276 356.949005,402.289276 335.000000,402.289276 
	C335.000000,439.385437 335.000000,476.192719 335.000000,513.000000 
	C323.979095,513.000000 312.958221,513.000000 301.468658,512.531372 
	C301.000000,486.828705 301.000000,461.594727 301.000000,436.336548 
	C271.418274,436.336548 242.268143,436.336548 213.000000,436.336548 
	C213.000000,462.115295 213.000000,487.557648 213.000000,513.000000 
	C201.979111,513.000000 190.958206,513.000000 179.468658,512.531372 
	C179.000000,475.464111 179.000000,438.865540 179.000000,402.263641 
	C156.737976,402.263641 135.001053,402.263641 112.866486,402.263641 
	C112.866486,413.598114 112.866486,424.674744 112.866486,436.139526 
	C101.395744,436.139526 90.318970,436.139526 78.854492,436.139526 
	C78.854492,447.277100 78.854492,458.020752 78.854492,468.724365 
	C67.380814,468.724365 56.309006,468.724365 45.278633,468.724365 
	C45.278633,457.374725 45.278633,446.302856 45.278633,434.836487 
	C56.295551,434.836487 67.039200,434.836487 78.169556,434.836487 
	C78.169556,423.364990 78.169556,412.288208 78.169556,400.824463 
	C89.641205,400.824463 100.718094,400.824463 111.710739,400.824463 
	C111.710739,378.686249 111.710739,356.949005 111.710739,335.000000 
	C74.614594,335.000000 37.807297,335.000000 1.000000,335.000000 
z"/>
<path fill="#FFFFFF" opacity="1.000000" stroke="none" 
	d="
M178.531342,1.000000 
	C179.000000,37.807278 179.000000,74.614555 179.000000,111.710709 
	C157.051025,111.710709 135.313797,111.710709 113.175629,111.710709 
	C113.175629,100.718193 113.175629,89.641312 113.175629,78.169678 
	C101.712051,78.169678 90.635223,78.169678 79.163681,78.169678 
	C79.163681,67.039345 79.163681,56.295696 79.163681,45.278709 
	C67.697327,45.278709 56.625458,45.278709 45.275730,45.278709 
	C45.275730,56.308819 45.275730,67.380615 45.275730,78.854263 
	C55.979042,78.854263 66.722679,78.854263 77.860260,78.854263 
	C77.860260,90.319176 77.860260,101.395515 77.860260,112.866219 
	C89.324699,112.866219 100.401581,112.866219 111.736221,112.866219 
	C111.736221,135.000763 111.736221,156.737671 111.736221,179.000000 
	C75.134659,179.000000 38.535984,179.000000 1.468657,179.000000 
	C1.000000,119.739647 1.000000,60.479294 1.000000,1.000000 
	C60.020714,1.000000 119.041702,1.000000 178.531342,1.000000 
z"/>
<path fill="#FFFFFF" opacity="1.000000" stroke="none" 
	d="
M513.000000,178.531342 
	C476.192719,179.000000 439.385437,179.000000 402.289276,179.000000 
	C402.289276,157.050995 402.289276,135.313751 402.289276,113.175568 
	C413.281860,113.175568 424.358765,113.175568 435.830383,113.175568 
	C435.830383,101.711967 435.830383,90.635139 435.830383,79.163582 
	C446.960724,79.163582 457.704407,79.163582 468.721344,79.163582 
	C468.721344,67.697205 468.721344,56.625427 468.721344,45.275669 
	C457.691040,45.275669 446.619263,45.275669 435.145569,45.275669 
	C435.145569,55.979183 435.145569,66.722839 435.145569,77.860443 
	C423.681091,77.860443 412.604309,77.860443 401.133606,77.860443 
	C401.133606,89.324898 401.133606,100.401779 401.133606,111.736320 
	C378.999023,111.736320 357.262054,111.736320 335.000000,111.736320 
	C335.000000,75.134499 335.000000,38.535908 335.000000,1.468657 
	C394.260345,1.000000 453.520721,1.000000 513.000000,1.000000 
	C513.000000,60.020714 513.000000,119.041702 513.000000,178.531342 
z"/>
<path fill="#FFFFFF" opacity="1.000000" stroke="none" 
	d="
M335.468658,513.000000 
	C335.000000,476.192719 335.000000,439.385437 335.000000,402.289276 
	C356.949005,402.289276 378.686249,402.289276 400.824463,402.289276 
	C400.824463,413.281891 400.824463,424.358765 400.824463,435.830414 
	C412.288055,435.830414 423.364868,435.830414 434.836426,435.830414 
	C434.836426,446.960754 434.836426,457.704437 434.836426,468.721375 
	C446.302826,468.721375 457.374603,468.721375 468.724335,468.721375 
	C468.724335,457.691040 468.724335,446.619232 468.724335,435.145569 
	C458.020782,435.145569 447.277130,435.145569 436.139526,435.145569 
	C436.139526,423.681091 436.139526,412.604309 436.139526,401.133575 
	C424.675079,401.133575 413.598206,401.133575 402.263672,401.133575 
	C402.263672,378.998993 402.263672,357.262054 402.263672,335.000000 
	C438.865509,335.000000 475.464081,335.000000 512.531372,335.000000 
	C513.000000,394.260345 513.000000,453.520721 513.000000,513.000000 
	C453.979279,513.000000 394.958313,513.000000 335.468658,513.000000 
z"/>
<path fill="#FFFFFF" opacity="1.000000" stroke="none" 
	d="
M1.000000,335.468658 
	C37.807297,335.000000 74.614594,335.000000 111.710739,335.000000 
	C111.710739,356.949005 111.710739,378.686249 111.710739,400.824463 
	C100.718094,400.824463 89.641205,400.824463 78.169556,400.824463 
	C78.169556,412.288208 78.169556,423.364990 78.169556,434.836487 
	C67.039200,434.836487 56.295551,434.836487 45.278633,434.836487 
	C45.278633,446.302856 45.278633,457.374725 45.278633,468.724365 
	C56.309006,468.724365 67.380814,468.724365 78.854492,468.724365 
	C78.854492,458.020752 78.854492,447.277100 78.854492,436.139526 
	C90.318970,436.139526 101.395744,436.139526 112.866486,436.139526 
	C112.866486,424.674744 112.866486,413.598114 112.866486,402.263641 
	C135.001053,402.263641 156.737976,402.263641 179.000000,402.263641 
	C179.000000,438.865540 179.000000,475.464111 179.000000,512.531372 
	C119.739655,513.000000 60.479309,513.000000 1.000000,513.000000 
	C1.000000,453.979279 1.000000,394.958313 1.000000,335.468658 
z"/>
<path fill="#FFFFFF" opacity="1.000000" stroke="none" 
	d="
M300.531342,1.000000 
	C301.000000,26.442362 301.000000,51.884724 301.000000,77.663460 
	C271.731842,77.663460 242.581711,77.663460 213.000000,77.663460 
	C213.000000,52.405254 213.000000,27.171286 213.000000,1.468657 
	C242.020889,1.000000 271.041779,1.000000 300.531342,1.000000 
z"/>
<path fill="#FFFFFF" opacity="1.000000" stroke="none" 
	d="
M1.000000,213.468658 
	C26.442362,213.000000 51.884724,213.000000 77.663452,213.000000 
	C77.663452,242.268158 77.663452,271.418274 77.663452,301.000000 
	C52.405266,301.000000 27.171291,301.000000 1.468657,301.000000 
	C1.000000,271.979095 1.000000,242.958206 1.000000,213.468658 
z"/>
<path fill="#FFFFFF" opacity="1.000000" stroke="none" 
	d="
M513.000000,300.531342 
	C487.557648,301.000000 462.115265,301.000000 436.336548,301.000000 
	C436.336548,271.731842 436.336548,242.581741 436.336548,213.000000 
	C461.594727,213.000000 486.828705,213.000000 512.531372,213.000000 
	C513.000000,242.020889 513.000000,271.041779 513.000000,300.531342 
z"/>
<path fill="#FFFFFF" opacity="1.000000" stroke="none" 
	d="
M213.468658,513.000000 
	C213.000000,487.557648 213.000000,462.115295 213.000000,436.336548 
	C242.268143,436.336548 271.418274,436.336548 301.000000,436.336548 
	C301.000000,461.594727 301.000000,486.828705 301.000000,512.531372 
	C271.979095,513.000000 242.958206,513.000000 213.468658,513.000000 
z"/>
</svg>